<svg width="32" height="32" viewBox="0 0 32 32" fill="none" xmlns="http://www.w3.org/2000/svg">
<path opacity="0.4" d="M26.6667 5.33325H5.33335C3.86059 5.33325 2.66669 6.52716 2.66669 7.99992V23.9999C2.66669 25.4727 3.86059 26.6666 5.33335 26.6666H26.6667C28.1394 26.6666 29.3334 25.4727 29.3334 23.9999V7.99992C29.3334 6.52716 28.1394 5.33325 26.6667 5.33325Z" fill="#77778B"/>
<path d="M26.6667 5.33325H5.33335C4.62611 5.33325 3.94783 5.6142 3.44774 6.1143C2.94764 6.6144 2.66669 7.29267 2.66669 7.99992V10.6666C2.66709 10.9028 2.73027 11.1348 2.84975 11.3386C2.96924 11.5424 3.14073 11.7108 3.34669 11.8266L15.3467 18.4933C15.5494 18.6103 15.7793 18.6719 16.0134 18.6719C16.2474 18.6719 16.4773 18.6103 16.68 18.4933L28.68 11.8266C28.881 11.7074 29.0472 11.5376 29.1618 11.334C29.2765 11.1304 29.3356 10.9002 29.3334 10.6666V7.99992C29.3334 7.29267 29.0524 6.6144 28.5523 6.1143C28.0522 5.6142 27.3739 5.33325 26.6667 5.33325Z" fill="#77778B"/>
</svg>
