<svg width="24" height="24" viewBox="0 0 24 24" fill="none" xmlns="http://www.w3.org/2000/svg">
<path opacity="0.4" d="M13.2209 17.5C12.9826 17.5001 12.752 17.415 12.5709 17.26C12.3708 17.0863 12.2478 16.8401 12.2291 16.5757C12.2103 16.3114 12.2973 16.0503 12.4709 15.85L20.2409 6.85005C20.3263 6.75025 20.4304 6.66823 20.5475 6.60869C20.6645 6.54915 20.7922 6.51324 20.9231 6.50303C21.054 6.49282 21.1857 6.50849 21.3106 6.54916C21.4355 6.58983 21.5511 6.65469 21.6509 6.74005C21.7507 6.82541 21.8327 6.92959 21.8923 7.04665C21.9518 7.1637 21.9877 7.29134 21.9979 7.42227C22.0081 7.5532 21.9925 7.68486 21.9518 7.80973C21.9111 7.93461 21.8463 8.05025 21.7609 8.15005L13.9809 17.15C13.887 17.2598 13.7705 17.3479 13.6393 17.4084C13.5081 17.4688 13.3653 17.5001 13.2209 17.5Z" fill="#77778B"/>
<path d="M6.9994 17.5004C6.85573 17.5016 6.71348 17.4719 6.58234 17.4132C6.45119 17.3546 6.33422 17.2683 6.2394 17.1604L2.2394 12.5404C2.06569 12.3388 1.97916 12.0765 1.99885 11.8111C2.01854 11.5458 2.14284 11.2991 2.3444 11.1254C2.54597 10.9516 2.80829 10.8651 3.07365 10.8848C3.33901 10.9045 3.58569 11.0288 3.7594 11.2304L6.9994 15.0004L13.9994 6.88037C14.0804 6.7679 14.1839 6.6735 14.3034 6.60316C14.4228 6.53282 14.5556 6.48808 14.6932 6.47178C14.8309 6.45548 14.9704 6.46797 15.103 6.50847C15.2355 6.54896 15.3582 6.61657 15.4633 6.70701C15.5683 6.79744 15.6534 6.90873 15.7131 7.0338C15.7729 7.15887 15.806 7.295 15.8103 7.43354C15.8147 7.57208 15.7902 7.71001 15.7383 7.83858C15.6865 7.96714 15.6086 8.08353 15.5094 8.18037L7.7394 17.1804C7.64502 17.2821 7.53048 17.3632 7.40308 17.4182C7.27568 17.4733 7.1382 17.5013 6.9994 17.5004Z" fill="#77778B"/>
</svg>
