<svg width="20" height="18" viewBox="0 0 20 18" fill="none" xmlns="http://www.w3.org/2000/svg">
<path fill-rule="evenodd" clip-rule="evenodd" d="M1.44561 1.44561C-1.47093e-07 2.89123 0 5.2179 0 9.87125V14.8069V16.7636C0 17.8629 1.32909 18.4135 2.10641 17.6361L4.75492 14.9875C4.84408 14.8984 4.88866 14.8539 4.94535 14.8303C5.00205 14.8069 5.06509 14.8069 5.19118 14.8069H12.3391C14.6388 14.8069 15.7886 14.8069 16.6956 14.4312C17.905 13.9302 18.8658 12.9693 19.3668 11.76C19.7425 10.8529 19.7425 9.70319 19.7425 7.40344C19.7425 5.10372 19.7425 3.95387 19.3668 3.04685C18.8658 1.83747 17.905 0.876641 16.6956 0.3757C15.7886 1.1032e-07 14.6388 0 12.3391 0H9.87125C5.21789 0 2.89123 -1.47093e-07 1.44561 1.44561Z" fill="#77778B"/>
<path d="M5.55273 5.55258H14.1901" stroke="#17183A" stroke-width="0.75" stroke-linecap="round" stroke-linejoin="round"/>
<path d="M5.55273 9.25391H11.7223" stroke="#17183A" stroke-width="0.75" stroke-linecap="round" stroke-linejoin="round"/>
</svg>
