<svg width="16" height="16" viewBox="0 0 16 16" fill="none" xmlns="http://www.w3.org/2000/svg">
<path d="M14.0466 3.48683C12.9733 3.38016 11.9 3.30016 10.82 3.24016V3.2335L10.6733 2.36683C10.5733 1.7535 10.4266 0.833496 8.86663 0.833496H7.11996C5.56661 0.833496 5.41994 1.7135 5.31328 2.36016L5.17328 3.2135C4.55328 3.2535 3.93328 3.2935 3.31328 3.3535L1.95328 3.48683C1.67328 3.5135 1.47328 3.76016 1.49994 4.0335C1.52661 4.30683 1.76661 4.50683 2.04661 4.48016L3.40661 4.34683C6.89996 4.00016 10.42 4.1335 13.9533 4.48683C13.9733 4.48683 13.9866 4.48683 14.0066 4.48683C14.26 4.48683 14.48 4.2935 14.5066 4.0335C14.5266 3.76016 14.3266 3.5135 14.0466 3.48683Z" fill="#F1F1F1"/>
<path opacity="0.3991" d="M12.8196 5.4265C12.6596 5.25984 12.4396 5.1665 12.213 5.1665H3.78634C3.55967 5.1665 3.333 5.25984 3.17967 5.4265C3.02634 5.59317 2.93967 5.81984 2.953 6.05317L3.36634 12.8932C3.43967 13.9065 3.533 15.1732 5.85967 15.1732H10.1396C12.4663 15.1732 12.5597 13.9132 12.633 12.8932L13.0463 6.05984C13.0596 5.81984 12.973 5.59317 12.8196 5.4265Z" fill="#F1F1F1"/>
<path fill-rule="evenodd" clip-rule="evenodd" d="M6.38672 11.3335C6.38672 11.0574 6.61057 10.8335 6.88673 10.8335H9.10673C9.38287 10.8335 9.60673 11.0574 9.60673 11.3335C9.60673 11.6096 9.38287 11.8335 9.10673 11.8335H6.88673C6.61057 11.8335 6.38672 11.6096 6.38672 11.3335Z" fill="#F1F1F1"/>
<path fill-rule="evenodd" clip-rule="evenodd" d="M5.8335 8.6665C5.8335 8.39037 6.05736 8.1665 6.3335 8.1665H9.66683C9.94296 8.1665 10.1668 8.39037 10.1668 8.6665C10.1668 8.94264 9.94296 9.1665 9.66683 9.1665H6.3335C6.05736 9.1665 5.8335 8.94264 5.8335 8.6665Z" fill="#F1F1F1"/>
</svg>
