<svg width="16" height="17" viewBox="0 0 16 17" fill="none" xmlns="http://www.w3.org/2000/svg">
<path opacity="0.4" d="M10.5832 1.08789H4.33377C1.62516 1.08789 0 2.7052 0 5.42166V11.6632C0 14.3875 1.62516 16.0049 4.33377 16.0049H10.5753C13.2918 16.0049 14.9091 14.3875 14.9091 11.6711V5.42166C14.917 2.7052 13.2918 1.08789 10.5832 1.08789Z" fill="#77778B"/>
<path d="M14.9334 1.0717C13.5281 -0.341487 12.1542 -0.372892 10.7096 1.0717L9.8224 1.95101C9.74389 2.02952 9.72034 2.13944 9.75174 2.2415C10.3013 4.165 11.8401 5.70381 13.7636 6.25338C13.7872 6.26123 13.8264 6.26123 13.85 6.26123C13.9285 6.26123 14.007 6.22983 14.062 6.17487L14.9334 5.29555C15.6479 4.58111 16.0012 3.89807 16.0012 3.19933C16.0012 2.49273 15.6479 1.79399 14.9334 1.0717Z" fill="#77778B"/>
<path d="M12.4521 6.91285C12.2401 6.81079 12.036 6.70873 11.8476 6.59096C11.6905 6.49678 11.5335 6.39472 11.3843 6.2848C11.2587 6.20629 11.1174 6.08853 10.9761 5.97076C10.9604 5.96291 10.9133 5.92365 10.8505 5.86085C10.6071 5.66457 10.348 5.39764 10.1046 5.10715C10.0889 5.09145 10.0418 5.04434 10.0026 4.97368C9.92405 4.88732 9.80629 4.73815 9.70422 4.57328C9.61786 4.46336 9.5158 4.30634 9.42158 4.14147C9.30382 3.94519 9.20176 3.74892 9.10754 3.54479C9.00548 3.32496 8.92697 3.12084 8.85631 2.92456L4.63247 7.14838C4.35768 7.42317 4.09075 7.94134 4.03579 8.32604L3.6982 10.6656C3.62754 11.1603 3.76101 11.6235 4.0672 11.9297C4.32628 12.1887 4.67958 12.3222 5.07213 12.3222C5.15849 12.3222 5.24485 12.3144 5.33121 12.3065L7.66295 11.9768C8.04765 11.9218 8.56582 11.6627 8.84061 11.3801L13.0645 7.15624C12.8682 7.09343 12.6719 7.00707 12.4521 6.91285Z" fill="#77778B"/>
</svg>
