<svg width="24" height="24" viewBox="0 0 24 24" fill="none" xmlns="http://www.w3.org/2000/svg">
<path opacity="0.4" fill-rule="evenodd" clip-rule="evenodd" d="M2.28282 9.27342C4.69299 5.94267 8.19618 3.96997 12.0001 3.96997C15.8042 3.96997 19.3075 5.94286 21.7177 9.27392C22.2793 10.0479 22.5351 11.0421 22.5351 11.995C22.5351 12.948 22.2792 13.9424 21.7174 14.7165C19.3072 18.0473 15.804 20.02 12.0001 20.02C8.19599 20.02 4.69264 18.0471 2.28246 14.716C1.7209 13.942 1.46509 12.9478 1.46509 11.995C1.46509 11.0419 1.721 10.0475 2.28282 9.27342Z" fill="#CBCBCB"/>
<path fill-rule="evenodd" clip-rule="evenodd" d="M11.9997 8.00024C9.7881 8.00024 7.99976 9.78859 7.99976 12.0002C7.99976 14.2119 9.7881 16.0002 11.9997 16.0002C14.2115 16.0002 15.9998 14.2119 15.9998 12.0002C15.9998 9.78859 14.2115 8.00024 11.9997 8.00024Z" fill="#0C0D29"/>
<path d="M14.8599 11.995C14.8599 13.5768 13.5816 14.855 11.9999 14.855C10.4181 14.855 9.13989 13.5768 9.13989 11.995C9.13989 10.4132 10.4181 9.13501 11.9999 9.13501C13.5816 9.13501 14.8599 10.4132 14.8599 11.995Z" fill="#CBCBCB"/>
</svg>
