<svg width="24" height="24" viewBox="0 0 24 24" fill="none" xmlns="http://www.w3.org/2000/svg">
<path d="M13.5112 9.48406C13.3123 9.48406 13.1216 9.40505 12.9809 9.26439C12.8403 9.12372 12.7612 8.93296 12.7612 8.73406V2.35156H6C5.40326 2.35156 4.83097 2.58861 4.40902 3.01057C3.98704 3.43253 3.75 4.00482 3.75 4.60156V19.6316C3.75 20.2283 3.98704 20.8006 4.40902 21.2225C4.83097 21.6445 5.40326 21.8816 6 21.8816H17.6475C18.2439 21.8805 18.8155 21.6431 19.2373 21.2213C19.659 20.7996 19.8964 20.228 19.8975 19.6316V9.48406H13.5112Z" fill="#77778B"/>
<path d="M19.455 7.98382L14.2612 2.79004V3.1013V7.98382H19.1475H19.455Z" fill="#77778B"/>
</svg>
