<svg width="24" height="24" viewBox="0 0 24 24" fill="none" xmlns="http://www.w3.org/2000/svg">
<path opacity="0.4" d="M20 2H4C2.89543 2 2 2.89543 2 4V20C2 21.1046 2.89543 22 4 22H20C21.1046 22 22 21.1046 22 20V4C22 2.89543 21.1046 2 20 2Z" fill="#77778B"/>
<path d="M18 17H11C10.7348 17 10.4804 16.8946 10.2929 16.7071C10.1054 16.5196 10 16.2652 10 16C10 15.7348 10.1054 15.4804 10.2929 15.2929C10.4804 15.1054 10.7348 15 11 15H18C18.2652 15 18.5196 15.1054 18.7071 15.2929C18.8946 15.4804 19 15.7348 19 16C19 16.2652 18.8946 16.5196 18.7071 16.7071C18.5196 16.8946 18.2652 17 18 17ZM18 13H11C10.7348 13 10.4804 12.8946 10.2929 12.7071C10.1054 12.5196 10 12.2652 10 12C10 11.7348 10.1054 11.4804 10.2929 11.2929C10.4804 11.1054 10.7348 11 11 11H18C18.2652 11 18.5196 11.1054 18.7071 11.2929C18.8946 11.4804 19 11.7348 19 12C19 12.2652 18.8946 12.5196 18.7071 12.7071C18.5196 12.8946 18.2652 13 18 13ZM18 9H11C10.7348 9 10.4804 8.89464 10.2929 8.70711C10.1054 8.51957 10 8.26522 10 8C10 7.73478 10.1054 7.48043 10.2929 7.29289C10.4804 7.10536 10.7348 7 11 7H18C18.2652 7 18.5196 7.10536 18.7071 7.29289C18.8946 7.48043 19 7.73478 19 8C19 8.26522 18.8946 8.51957 18.7071 8.70711C18.5196 8.89464 18.2652 9 18 9ZM6.5 6.5C6.20333 6.5 5.91332 6.58797 5.66665 6.7528C5.41997 6.91762 5.22771 7.15189 5.11418 7.42597C5.00065 7.70006 4.97094 8.00166 5.02882 8.29264C5.0867 8.58361 5.22956 8.85088 5.43934 9.06066C5.64912 9.27044 5.91639 9.4133 6.20737 9.47118C6.49834 9.52906 6.79994 9.49935 7.07403 9.38582C7.34811 9.27229 7.58238 9.08003 7.74721 8.83335C7.91203 8.58668 8 8.29667 8 8C8 7.60218 7.84197 7.22064 7.56066 6.93934C7.27936 6.65804 6.89783 6.5 6.5 6.5ZM6.5 10.5C6.20333 10.5 5.91332 10.588 5.66665 10.7528C5.41997 10.9176 5.22771 11.1519 5.11418 11.426C5.00065 11.7001 4.97094 12.0017 5.02882 12.2926C5.0867 12.5836 5.22956 12.8509 5.43934 13.0607C5.64912 13.2704 5.91639 13.4133 6.20737 13.4712C6.49834 13.5291 6.79994 13.4994 7.07403 13.3858C7.34811 13.2723 7.58238 13.08 7.74721 12.8334C7.91203 12.5867 8 12.2967 8 12C8 11.6022 7.84197 11.2206 7.56066 10.9393C7.27936 10.658 6.89783 10.5 6.5 10.5ZM6.5 14.5C6.20333 14.5 5.91332 14.588 5.66665 14.7528C5.41997 14.9176 5.22771 15.1519 5.11418 15.426C5.00065 15.7001 4.97094 16.0017 5.02882 16.2926C5.0867 16.5836 5.22956 16.8509 5.43934 17.0607C5.64912 17.2704 5.91639 17.4133 6.20737 17.4712C6.49834 17.5291 6.79994 17.4993 7.07403 17.3858C7.34811 17.2723 7.58238 17.08 7.74721 16.8334C7.91203 16.5867 8 16.2967 8 16C8 15.6022 7.84197 15.2206 7.56066 14.9393C7.27936 14.658 6.89783 14.5 6.5 14.5Z" fill="#77778B"/>
</svg>
