<svg width="24" height="24" viewBox="0 0 24 24" fill="none" xmlns="http://www.w3.org/2000/svg">
<path opacity="0.4" d="M20 3H4C2.89543 3 2 3.89543 2 5V19C2 20.1046 2.89543 21 4 21H20C21.1046 21 22 20.1046 22 19V5C22 3.89543 21.1046 3 20 3Z" fill="#77778B"/>
<path d="M2.29002 17L7.00002 12.29C7.09298 12.1963 7.20358 12.1219 7.32544 12.0711C7.4473 12.0203 7.578 11.9942 7.71002 11.9942C7.84203 11.9942 7.97273 12.0203 8.09459 12.0711C8.21645 12.1219 8.32705 12.1963 8.42002 12.29L10.51 14.39L14.58 10.31C14.673 10.2163 14.7836 10.1419 14.9054 10.0911C15.0273 10.0403 15.158 10.0142 15.29 10.0142C15.422 10.0142 15.5527 10.0403 15.6746 10.0911C15.7965 10.1419 15.9071 10.2163 16 10.31L21.71 16C21.8027 16.0934 21.876 16.2043 21.9258 16.3261C21.9756 16.4479 22.0008 16.5784 22 16.71V19C22 19.5304 21.7893 20.0391 21.4142 20.4142C21.0392 20.7893 20.5304 21 20 21H4.00002C3.46958 21 2.96088 20.7893 2.5858 20.4142C2.21073 20.0391 2.00002 19.5304 2.00002 19V17.71C1.99926 17.5784 2.02448 17.4479 2.07425 17.3261C2.12401 17.2043 2.19734 17.0934 2.29002 17ZM7.50002 7.5C7.50002 7.79667 7.58799 8.08668 7.75281 8.33335C7.91763 8.58003 8.1519 8.77229 8.42599 8.88582C8.70008 8.99935 9.00168 9.02906 9.29265 8.97118C9.58362 8.9133 9.8509 8.77044 10.0607 8.56066C10.2705 8.35088 10.4133 8.08361 10.4712 7.79264C10.5291 7.50166 10.4994 7.20006 10.3858 6.92597C10.2723 6.65189 10.08 6.41762 9.83337 6.2528C9.5867 6.08797 9.29669 6 9.00002 6C8.60219 6 8.22066 6.15804 7.93936 6.43934C7.65805 6.72064 7.50002 7.10218 7.50002 7.5Z" fill="#77778B"/>
</svg>
