<svg width="24" height="24" viewBox="0 0 24 24" fill="none" xmlns="http://www.w3.org/2000/svg">
<path opacity="0.4" d="M2 10.8889C2 6.69862 2 4.6035 3.30174 3.30174C4.6035 2 6.69862 2 10.8889 2H13.1111C17.3013 2 19.3966 2 20.6982 3.30174C22 4.6035 22 6.69862 22 10.8889V13.1111C22 17.3013 22 19.3966 20.6982 20.6982C19.3966 22 17.3013 22 13.1111 22H10.8889C6.69862 22 4.6035 22 3.30174 20.6982C2 19.3966 2 17.3013 2 13.1111V10.8889Z" fill="#77778B"/>
<path d="M17.5554 7.55523C18.1691 7.55523 18.6666 7.05777 18.6666 6.44412C18.6666 5.83047 18.1691 5.33301 17.5554 5.33301C16.9418 5.33301 16.4443 5.83047 16.4443 6.44412C16.4443 7.05777 16.9418 7.55523 17.5554 7.55523Z" fill="#77778B"/>
<path d="M12.0003 15.3337C13.8413 15.3337 15.3337 13.8413 15.3337 12.0003C15.3337 10.1594 13.8413 8.66699 12.0003 8.66699C10.1594 8.66699 8.66699 10.1594 8.66699 12.0003C8.66699 13.8413 10.1594 15.3337 12.0003 15.3337Z" fill="#77778B"/>
</svg>
