<svg width="24" height="24" viewBox="0 0 24 24" fill="none" xmlns="http://www.w3.org/2000/svg">
<path opacity="0.4" d="M16.19 2H7.81C4.17 2 2 4.17 2 7.81V16.18C2 19.83 4.17 22 7.81 22H16.18C19.82 22 21.99 19.83 21.99 16.19V7.81C22 4.17 19.83 2 16.19 2Z" fill="#77778B"/>
<path d="M9.09961 11.9995V10.5195C9.09961 8.6095 10.4496 7.8395 12.0996 8.7895L13.3796 9.5295L14.6596 10.2695C16.3096 11.2195 16.3096 12.7795 14.6596 13.7295L13.3796 14.4695L12.0996 15.2095C10.4496 16.1595 9.09961 15.3795 9.09961 13.4795V11.9995Z" fill="#77778B"/>
</svg>
