<svg width="24" height="24" viewBox="0 0 24 24" fill="none" xmlns="http://www.w3.org/2000/svg">
<path opacity="0.4" d="M18 3H6C4.89543 3 4 3.89543 4 5V19C4 20.1046 4.89543 21 6 21H18C19.1046 21 20 20.1046 20 19V5C20 3.89543 19.1046 3 18 3Z" fill="#77778B"/>
<path d="M8.5 6.5H15.5" stroke="#77778B" stroke-linecap="round"/>
<path d="M8.5 9.5H12.5" stroke="#77778B" stroke-linecap="round"/>
<path d="M8.5 12.5H14.5" stroke="#77778B" stroke-linecap="round"/>
<path d="M4 19C4 17.8954 4.89543 17 6 17H17C17.9319 17 18.3978 17 18.7654 16.8478C19.2554 16.6448 19.6448 16.2554 19.8478 15.7654C20 15.3978 20 14.9319 20 14V17C20 18.8856 20 19.8284 19.4142 20.4142C18.8284 21 17.8856 21 16 21H6C4.89543 21 4 20.1046 4 19Z" fill="#77778B"/>
</svg>
