<svg width="24" height="21" viewBox="0 0 24 21" fill="none" xmlns="http://www.w3.org/2000/svg">
<path d="M22.8151 8.36674L19.967 6.23174L18.6151 5.2167L13.5008 1.37545C13.0066 1.00893 12.4076 0.811035 11.7923 0.811035C11.1771 0.811035 10.5781 1.00893 10.0839 1.37545L5.65638 4.70049L3.657 6.19932C3.52392 6.29623 3.40212 6.40779 3.29388 6.53187L0.75638 8.50061C0.573627 8.64355 0.454601 8.8528 0.425118 9.08293C0.395635 9.3131 0.458075 9.54554 0.598889 9.72999C0.681454 9.83547 0.787066 9.92065 0.907641 9.97906C1.02821 10.0375 1.16055 10.0675 1.29451 10.0668C1.48816 10.0682 1.67647 10.0033 1.82826 9.88311L2.5195 9.34495V18.1212C2.5202 18.8752 2.82002 19.5982 3.3532 20.1313C3.88634 20.6644 4.60927 20.9643 5.36325 20.9649H8.25951V17.4956C8.26056 16.5595 8.63287 15.6621 9.29476 15.0002C9.95665 14.3383 10.8541 13.966 11.7901 13.9649C12.7269 13.9651 13.6253 14.337 14.2881 14.9989C14.9508 15.6609 15.3239 16.5588 15.3251 17.4956V20.9649H18.2258C18.9795 20.9635 19.702 20.6634 20.2349 20.1304C20.7679 19.5974 21.068 18.875 21.0695 18.1212V9.24432L21.7651 9.76495C21.9165 9.87883 22.1007 9.9403 22.2901 9.93995C22.426 9.93995 22.5599 9.90836 22.6814 9.84759C22.803 9.78687 22.9086 9.69862 22.9901 9.58995C23.0595 9.49838 23.1101 9.39395 23.1389 9.28269C23.1677 9.17143 23.1741 9.05558 23.1578 8.94183C23.1415 8.82808 23.1029 8.71867 23.0441 8.61997C22.9852 8.52122 22.9074 8.43516 22.8151 8.36674Z" fill="#77778B"/>
</svg>
