<svg width="18" height="19" viewBox="0 0 18 19" fill="none" xmlns="http://www.w3.org/2000/svg">
<path d="M18.0003 18.0008V11.4079C18.0003 8.16775 17.3027 5.69263 13.5226 5.69263C11.7 5.69263 10.4849 6.68268 9.98987 7.62773H9.94487V5.98514H6.36719V18.0008H10.1024V12.038C10.1024 10.4629 10.3949 8.95529 12.33 8.95529C14.2426 8.95529 14.2651 10.7329 14.2651 12.128V17.9783H18.0003V18.0008Z" fill="#77778B"/>
<path d="M0.294922 5.9856H4.03011V18.0012H0.294922V5.9856Z" fill="#77778B"/>
<path d="M2.16011 0C0.96755 0 0 0.96755 0 2.16011C0 3.35267 0.96755 4.34272 2.16011 4.34272C3.35267 4.34272 4.32022 3.35267 4.32022 2.16011C4.32022 0.96755 3.35267 0 2.16011 0Z" fill="#77778B"/>
</svg>
