<svg width="22" height="22" viewBox="0 0 22 22" fill="none" xmlns="http://www.w3.org/2000/svg">
<path d="M11.0031 5.52222C7.97819 5.52222 5.5293 7.97377 5.5293 10.996C5.5293 14.0209 7.98085 16.4698 11.0031 16.4698C14.028 16.4698 16.4769 14.0182 16.4769 10.996C16.4769 7.97111 14.0253 5.52222 11.0031 5.52222ZM11.0031 14.5489C9.03952 14.5489 7.45019 12.9587 7.45019 10.996C7.45019 9.03333 9.04041 7.44311 11.0031 7.44311C12.9657 7.44311 14.556 9.03333 14.556 10.996C14.5569 12.9587 12.9666 14.5489 11.0031 14.5489Z" fill="#77778B"/>
<path d="M15.3971 0.400506C13.4345 0.308951 8.57312 0.313395 6.60868 0.400506C4.88246 0.481395 3.35979 0.898284 2.13223 2.12584C0.0806776 4.1774 0.3429 6.94184 0.3429 10.9961C0.3429 15.1454 0.111789 17.8458 2.13223 19.8663C4.19179 21.925 6.99623 21.6556 11.0025 21.6556C15.1127 21.6556 16.5313 21.6583 17.9847 21.0956C19.9607 20.3285 21.4522 18.5623 21.598 15.3898C21.6905 13.4263 21.6851 8.56584 21.598 6.6014C21.422 2.85651 19.4122 0.585395 15.3971 0.400506ZM18.5038 18.509C17.1589 19.8538 15.2931 19.7338 10.9767 19.7338C6.53224 19.7338 4.75001 19.7996 3.44957 18.4956C1.95179 17.005 2.2229 14.6112 2.2229 10.9818C2.2229 6.07073 1.7189 2.53384 6.64779 2.2814C7.78024 2.2414 8.11357 2.22806 10.9642 2.22806L11.0042 2.25473C15.7411 2.25473 19.4576 1.75873 19.6807 6.68673C19.7313 7.81118 19.7429 8.14895 19.7429 10.9952C19.742 15.3881 19.8256 17.181 18.5038 18.509Z" fill="#77778B"/>
<path d="M16.6951 6.5858C17.4016 6.5858 17.9742 6.01313 17.9742 5.3067C17.9742 4.60026 17.4016 4.02759 16.6951 4.02759C15.9887 4.02759 15.416 4.60026 15.416 5.3067C15.416 6.01313 15.9887 6.5858 16.6951 6.5858Z" fill="#77778B"/>
</svg>
