<svg width="22" height="22" viewBox="0 0 22 22" fill="none" xmlns="http://www.w3.org/2000/svg">
<path d="M11.0041 5.52197C7.97916 5.52197 5.53027 7.97353 5.53027 10.9958C5.53027 14.0206 7.98183 16.4695 11.0041 16.4695C14.0289 16.4695 16.4778 14.018 16.4778 10.9958C16.4778 7.97086 14.0263 5.52197 11.0041 5.52197ZM11.0041 14.5486C9.0405 14.5486 7.45116 12.9584 7.45116 10.9958C7.45116 9.03309 9.04139 7.44286 11.0041 7.44286C12.9667 7.44286 14.5569 9.03309 14.5569 10.9958C14.5578 12.9584 12.9676 14.5486 11.0041 14.5486Z" fill="#77778B"/>
<path d="M15.3991 0.40014C13.4364 0.308585 8.57508 0.313029 6.61063 0.40014C4.88441 0.481029 3.36174 0.897918 2.13419 2.12547C0.0826307 4.17703 0.344853 6.94148 0.344853 10.9957C0.344853 15.145 0.113742 17.8455 2.13419 19.8659C4.19374 21.9246 6.99819 21.6553 11.0044 21.6553C15.1146 21.6553 16.5333 21.6579 17.9866 21.0953C19.9626 20.3281 21.4542 18.5619 21.6 15.3895C21.6924 13.4259 21.6871 8.56548 21.6 6.60103C21.424 2.85614 19.4142 0.585029 15.3991 0.40014ZM18.5057 18.5086C17.1609 19.8535 15.2951 19.7335 10.9786 19.7335C6.53419 19.7335 4.75197 19.7993 3.45152 18.4953C1.95374 17.0046 2.22485 14.6108 2.22485 10.9815C2.22485 6.07036 1.72085 2.53347 6.64974 2.28103C7.78219 2.24103 8.11552 2.2277 10.9662 2.2277L11.0062 2.25436C15.7431 2.25436 19.4595 1.75836 19.6826 6.68636C19.7333 7.81081 19.7449 8.14859 19.7449 10.9948C19.744 15.3877 19.8275 17.1806 18.5057 18.5086Z" fill="#77778B"/>
<path d="M16.6951 6.58532C17.4016 6.58532 17.9742 6.01264 17.9742 5.30621C17.9742 4.59978 17.4016 4.0271 16.6951 4.0271C15.9887 4.0271 15.416 4.59978 15.416 5.30621C15.416 6.01264 15.9887 6.58532 16.6951 6.58532Z" fill="#77778B"/>
</svg>
