<svg width="14" height="12" viewBox="0 0 14 12" fill="none" xmlns="http://www.w3.org/2000/svg">
<path fill-rule="evenodd" clip-rule="evenodd" d="M9.12836 2.03004C9.30137 1.20916 8.76891 0.356449 7.99056 0.0922431C7.61303 -0.046706 7.21335 -0.0155985 6.88044 0.0988439C6.54862 0.212911 6.23111 0.427569 6.0343 0.722278L6.03372 0.723118L3.71614 4.17122C4.07004 4.3578 4.31129 4.72934 4.31129 5.15726V12H3.34375H9.56273C10.5899 12 11.1685 11.3609 11.6087 10.6634C12.0912 9.89886 12.405 9.08423 12.6381 8.35864C12.7458 8.02344 12.8378 7.70244 12.9202 7.41479L12.9403 7.34458C13.0292 7.03433 13.1054 6.77316 13.182 6.55961C13.3933 5.97037 13.3267 5.38348 12.9917 4.93791C12.6611 4.49832 12.1219 4.26608 11.5232 4.26608H8.97706C8.9199 4.26608 8.87629 4.24297 8.84969 4.21279C8.82671 4.18677 8.8008 4.13803 8.81283 4.04963L9.12836 2.03004Z" fill="#CBCBCB"/>
<path opacity="0.4" d="M0.333008 5.20066C0.333008 4.82517 0.617997 4.52075 0.969542 4.52075H3.19741C3.54896 4.52075 3.83395 4.82517 3.83395 5.20066V12.0001H0.969542C0.617997 12.0001 0.333008 11.6956 0.333008 11.3201V5.20066Z" fill="#CBCBCB"/>
</svg>
