<svg width="27" height="24" viewBox="0 0 27 24" fill="none" xmlns="http://www.w3.org/2000/svg">
<path fill-rule="evenodd" clip-rule="evenodd" d="M18.2587 4.06007C18.6047 2.41833 17.5398 0.712898 15.9831 0.184486C15.228 -0.0934119 14.4287 -0.0311971 13.7628 0.197688C13.0992 0.425822 12.4642 0.855138 12.0705 1.44456L12.0694 1.44624L7.43424 8.34243C8.14204 8.71561 8.62454 9.45868 8.62454 10.3145V24H6.68945H19.1274C21.1818 24 22.339 22.7217 23.2193 21.3268C24.1844 19.7977 24.8119 18.1685 25.2782 16.7173C25.4936 16.0469 25.6775 15.4049 25.8423 14.8296L25.8826 14.6892C26.0604 14.0687 26.2128 13.5463 26.366 13.1192C26.7886 11.9407 26.6553 10.767 25.9853 9.87582C25.3241 8.99664 24.2457 8.53216 23.0483 8.53216H17.9561C17.8417 8.53216 17.7545 8.48593 17.7013 8.42558C17.6554 8.37355 17.6036 8.27606 17.6276 8.09927L18.2587 4.06007Z" fill="#77778B"/>
<path opacity="0.4" d="M0.666992 10.4003C0.666992 9.64936 1.23697 9.04053 1.94006 9.04053H6.3958C7.0989 9.04053 7.66887 9.64936 7.66887 10.4003V23.9991H1.94006C1.23697 23.9991 0.666992 23.3902 0.666992 22.6392V10.4003Z" fill="#77778B"/>
</svg>
