<svg width="20" height="20" viewBox="0 0 20 20" fill="none" xmlns="http://www.w3.org/2000/svg">
<path fill-rule="evenodd" clip-rule="evenodd" d="M12.6609 5.03755C12.8772 4.01145 12.2116 2.94556 11.2387 2.6153C10.7668 2.44162 10.2672 2.4805 9.85104 2.62355C9.43626 2.76614 9.03938 3.03446 8.79336 3.40285L8.79264 3.4039L5.89567 7.71402C6.33804 7.94725 6.63961 8.41168 6.63961 8.94657V17.5H5.43018H13.2039C14.4879 17.5 15.2111 16.7011 15.7613 15.8293C16.3645 14.8736 16.7567 13.8553 17.0482 12.9483C17.1828 12.5293 17.2977 12.1281 17.4007 11.7685L17.4259 11.6807C17.537 11.2929 17.6323 10.9665 17.728 10.6995C17.9922 9.96296 17.9088 9.22935 17.4901 8.67239C17.0768 8.1229 16.4028 7.8326 15.6545 7.8326H12.4718C12.4004 7.8326 12.3459 7.80371 12.3126 7.76599C12.2839 7.73347 12.2515 7.67253 12.2665 7.56204L12.6609 5.03755Z" fill="#CBCBCB"/>
<path opacity="0.4" d="M1.66699 9.00028C1.66699 8.53091 2.02323 8.15039 2.46266 8.15039H5.2475C5.68694 8.15039 6.04316 8.53091 6.04316 9.00028V17.4995H2.46266C2.02323 17.4995 1.66699 17.1189 1.66699 16.6496V9.00028Z" fill="#CBCBCB"/>
</svg>
