<svg width="12" height="12" viewBox="0 0 12 12" fill="none" xmlns="http://www.w3.org/2000/svg">
<path d="M10.1736 12.0001H1.82496C0.819684 12.0001 0 11.1818 0 10.1751V1.82642C0 0.819743 0.818278 0.00146484 1.82496 0.00146484H5.9993C6.33111 0.00146484 6.59965 0.270006 6.59965 0.601817C6.59965 0.933627 6.33111 1.20217 5.9993 1.20217H1.82496C1.48049 1.20217 1.2007 1.48196 1.2007 1.82642V10.1751C1.2007 10.5196 1.48049 10.7994 1.82496 10.7994H10.1736C10.5181 10.7994 10.7979 10.5196 10.7979 10.1751V6.00076C10.7979 5.66895 11.0664 5.40041 11.3982 5.40041C11.7301 5.40041 11.9972 5.66895 11.9972 6.00076V10.1751C11.9972 11.1818 11.1789 12.0001 10.1736 12.0001Z" fill="#F37A10"/>
<path d="M11.3982 4.50053C11.0664 4.50053 10.7979 4.23199 10.7979 3.90018V1.79543C10.7979 1.46784 10.5307 1.2007 10.2031 1.2007H8.0984C7.76659 1.2007 7.49805 0.932162 7.49805 0.600352C7.49805 0.268542 7.76659 0 8.0984 0H10.2031C11.193 0 11.9972 0.804218 11.9972 1.79403V3.89877C11.9972 4.23199 11.7286 4.50053 11.3982 4.50053Z" fill="#77778B"/>
<path d="M4.02063 8.82113C3.86737 8.82113 3.71412 8.76208 3.59602 8.64538C3.36122 8.41058 3.36122 8.03097 3.59602 7.79758L10.7356 0.658032C10.9704 0.423234 11.35 0.423234 11.5834 0.658032C11.8182 0.89283 11.8182 1.27244 11.5834 1.50584L4.44523 8.64538C4.32713 8.76208 4.17388 8.82113 4.02063 8.82113Z" fill="#77778B"/>
</svg>
