<svg width="17" height="20" viewBox="0 0 17 20" fill="none" xmlns="http://www.w3.org/2000/svg">
<path opacity="0.4" d="M16.6431 6.37195C15.6445 1.97816 11.8118 0 8.44518 0C8.44518 0 8.44518 0 8.43567 0C5.07852 0 1.23633 1.96865 0.237739 6.36244C-0.874975 11.2698 2.1303 15.4258 4.85027 18.0412C5.85837 19.0112 7.15176 19.4963 8.44518 19.4963C9.73859 19.4963 11.032 19.0112 12.0306 18.0412C14.7506 15.4258 17.7558 11.2793 16.6431 6.37195Z" fill="#77778B"/>
<path d="M8.44571 11.1371C10.1002 11.1371 11.4415 9.79583 11.4415 8.14131C11.4415 6.48676 10.1002 5.14551 8.44571 5.14551C6.79119 5.14551 5.44995 6.48676 5.44995 8.14131C5.44995 9.79583 6.79119 11.1371 8.44571 11.1371Z" fill="#77778B"/>
</svg>
