<svg width="32" height="32" viewBox="0 0 32 32" fill="none" xmlns="http://www.w3.org/2000/svg">
<path opacity="0.4" d="M26.6668 4H5.33348C3.86072 4 2.66681 5.19391 2.66681 6.66667V25.3333C2.66681 26.8061 3.86072 28 5.33348 28H26.6668C28.1396 28 29.3335 26.8061 29.3335 25.3333V6.66667C29.3335 5.19391 28.1396 4 26.6668 4Z" fill="#77778B"/>
<path d="M3.0535 22.6667L9.3335 16.3867C9.45745 16.2617 9.60492 16.1625 9.7674 16.0948C9.92987 16.0271 10.1041 15.9923 10.2802 15.9923C10.4562 15.9923 10.6305 16.0271 10.7929 16.0948C10.9554 16.1625 11.1029 16.2617 11.2268 16.3867L14.0135 19.1867L19.4402 13.7467C19.5641 13.6217 19.7116 13.5225 19.8741 13.4548C20.0365 13.3871 20.2108 13.3523 20.3868 13.3523C20.5628 13.3523 20.7371 13.3871 20.8996 13.4548C21.0621 13.5225 21.2095 13.6217 21.3335 13.7467L28.9468 21.3333C29.0704 21.4579 29.1682 21.6057 29.2345 21.7681C29.3009 21.9306 29.3345 22.1045 29.3335 22.28V25.3333C29.3335 26.0406 29.0525 26.7189 28.5524 27.219C28.0524 27.719 27.3741 28 26.6668 28H5.3335C4.62625 28 3.94798 27.719 3.44788 27.219C2.94778 26.7189 2.66683 26.0406 2.66683 25.3333V23.6133C2.66582 23.4379 2.69945 23.2639 2.7658 23.1015C2.83216 22.939 2.92992 22.7913 3.0535 22.6667ZM10.0002 10C10.0002 10.3956 10.1175 10.7822 10.3372 11.1111C10.557 11.44 10.8693 11.6964 11.2348 11.8478C11.6002 11.9991 12.0024 12.0387 12.3903 11.9616C12.7783 11.8844 13.1347 11.6939 13.4144 11.4142C13.6941 11.1345 13.8846 10.7781 13.9617 10.3902C14.0389 10.0022 13.9993 9.60009 13.8479 9.23463C13.6965 8.86918 13.4402 8.55682 13.1113 8.33706C12.7824 8.1173 12.3957 8 12.0002 8C11.4697 8 10.961 8.21071 10.586 8.58579C10.2109 8.96086 10.0002 9.46957 10.0002 10Z" fill="#77778B"/>
</svg>
