<svg width="28" height="28" viewBox="0 0 28 28" fill="none" xmlns="http://www.w3.org/2000/svg">
<path opacity="0.4" d="M0.666687 12.5184C0.666687 6.93133 0.666687 4.13784 2.40235 2.40216C4.13802 0.666504 6.93152 0.666504 12.5185 0.666504H15.4815C21.0685 0.666504 23.8621 0.666504 25.5977 2.40216C27.3334 4.13784 27.3334 6.93133 27.3334 12.5184V15.4813C27.3334 21.0683 27.3334 23.8619 25.5977 25.5975C23.8621 27.3332 21.0685 27.3332 15.4815 27.3332H12.5185C6.93152 27.3332 4.13802 27.3332 2.40235 25.5975C0.666687 23.8619 0.666687 21.0683 0.666687 15.4813V12.5184Z" fill="#77778B"/>
<path d="M21.4074 8.0738C22.2256 8.0738 22.8889 7.41052 22.8889 6.59232C22.8889 5.77412 22.2256 5.11084 21.4074 5.11084C20.5892 5.11084 19.926 5.77412 19.926 6.59232C19.926 7.41052 20.5892 8.0738 21.4074 8.0738Z" fill="#77778B"/>
<path d="M13.9999 18.445C16.4545 18.445 18.4444 16.4552 18.4444 14.0006C18.4444 11.546 16.4545 9.55615 13.9999 9.55615C11.5453 9.55615 9.55548 11.546 9.55548 14.0006C9.55548 16.4552 11.5453 18.445 13.9999 18.445Z" fill="#77778B"/>
</svg>
