<svg width="32" height="32" viewBox="0 0 32 32" fill="none" xmlns="http://www.w3.org/2000/svg">
<path opacity="0.4" d="M21.5868 2.6665H10.4135C5.56014 2.6665 2.66681 5.55984 2.66681 10.4132V21.5732C2.66681 26.4398 5.56014 29.3332 10.4135 29.3332H21.5735C26.4268 29.3332 29.3201 26.4398 29.3201 21.5865V10.4132C29.3335 5.55984 26.4401 2.6665 21.5868 2.6665Z" fill="#77778B"/>
<path d="M12.1328 15.9995V14.0262C12.1328 11.4795 13.9328 10.4528 16.1328 11.7195L17.8395 12.7062L19.5461 13.6928C21.7461 14.9595 21.7461 17.0395 19.5461 18.3062L17.8395 19.2928L16.1328 20.2795C13.9328 21.5462 12.1328 20.5062 12.1328 17.9728V15.9995Z" fill="#77778B"/>
</svg>
