<svg width="32" height="32" viewBox="0 0 32 32" fill="none" xmlns="http://www.w3.org/2000/svg">
<path opacity="0.4" d="M21.586 2.66699H10.4127C5.55935 2.66699 2.66602 5.56033 2.66602 10.4137V21.5737C2.66602 26.4403 5.55935 29.3337 10.4127 29.3337H21.5727C26.426 29.3337 29.3193 26.4403 29.3193 21.587V10.4137C29.3327 5.56033 26.4394 2.66699 21.586 2.66699Z" fill="#77778B"/>
<path d="M20.6649 13.5065C22.0493 13.5065 23.1715 12.3842 23.1715 10.9998C23.1715 9.61543 22.0493 8.49316 20.6649 8.49316C19.2805 8.49316 18.1582 9.61543 18.1582 10.9998C18.1582 12.3842 19.2805 13.5065 20.6649 13.5065Z" fill="#77778B"/>
<path d="M11.3328 13.5065C12.7172 13.5065 13.8395 12.3842 13.8395 10.9998C13.8395 9.61543 12.7172 8.49316 11.3328 8.49316C9.94845 8.49316 8.82617 9.61543 8.82617 10.9998C8.82617 12.3842 9.94845 13.5065 11.3328 13.5065Z" fill="#77778B"/>
<path d="M20.8012 17.2266H11.2011C10.2678 17.2266 9.50781 17.9866 9.50781 18.9332C9.50781 22.5199 12.4278 25.4399 16.0145 25.4399C19.6012 25.4399 22.5212 22.5199 22.5212 18.9332C22.5079 17.9999 21.7345 17.2266 20.8012 17.2266Z" fill="#77778B"/>
</svg>
