<svg width="24" height="24" viewBox="0 0 24 24" fill="none" xmlns="http://www.w3.org/2000/svg">
<path opacity="0.4" d="M20 4H4C2.89543 4 2 4.89543 2 6V18C2 19.1046 2.89543 20 4 20H20C21.1046 20 22 19.1046 22 18V6C22 4.89543 21.1046 4 20 4Z" fill="#77778B"/>
<path d="M20 4H4C3.46957 4 2.96086 4.21071 2.58579 4.58579C2.21071 4.96086 2 5.46957 2 6V8C2.00031 8.1772 2.04769 8.35113 2.1373 8.504C2.22691 8.65686 2.35553 8.78317 2.51 8.87L11.51 13.87C11.662 13.9578 11.8345 14.004 12.01 14.004C12.1855 14.004 12.358 13.9578 12.51 13.87L21.51 8.87C21.6607 8.78063 21.7854 8.65322 21.8714 8.50053C21.9574 8.34784 22.0017 8.17523 22 8V6C22 5.46957 21.7893 4.96086 21.4142 4.58579C21.0391 4.21071 20.5304 4 20 4Z" fill="#77778B"/>
</svg>
