<svg width="12" height="21" viewBox="0 0 12 21" fill="none" xmlns="http://www.w3.org/2000/svg">
<path opacity="0.4" d="M9.6 0H2.4C1.07452 0 0 1.07452 0 2.4V18C0 19.3255 1.07452 20.4 2.4 20.4H9.6C10.9255 20.4 12 19.3255 12 18V2.4C12 1.07452 10.9255 0 9.6 0Z" fill="#77778B"/>
<path d="M5.9998 19.2C6.66255 19.2 7.1998 18.6628 7.1998 18C7.1998 17.3373 6.66255 16.8 5.9998 16.8C5.33706 16.8 4.7998 17.3373 4.7998 18C4.7998 18.6628 5.33706 19.2 5.9998 19.2Z" fill="#77778B"/>
<path d="M2.40039 1.35671C2.40039 1.27028 2.47047 1.2002 2.55691 1.2002H9.44391C9.53031 1.2002 9.60039 1.27028 9.60039 1.35671C9.60039 1.93301 9.13323 2.4002 8.55687 2.4002H3.44387C2.86757 2.4002 2.40039 1.93301 2.40039 1.35671Z" fill="#77778B"/>
</svg>
