<svg width="12" height="14" viewBox="0 0 12 14" fill="none" xmlns="http://www.w3.org/2000/svg">
<path d="M10.9581 8.79833L4.02472 13.5C3.6927 13.719 3.30679 13.8424 2.9093 13.8566C2.5118 13.8709 2.11806 13.7754 1.77121 13.5808C1.42436 13.3861 1.1378 13.0997 0.942918 12.7529C0.748039 12.4062 0.652367 12.0125 0.666386 11.615V2.385C0.652367 1.9875 0.748039 1.5938 0.942918 1.24707C1.1378 0.90033 1.42436 0.613928 1.77121 0.419245C2.11806 0.224563 2.5118 0.129114 2.9093 0.143358C3.30679 0.157602 3.6927 0.280989 4.02472 0.499998L10.9581 5.115C11.2716 5.30931 11.5303 5.58046 11.7098 5.90275C11.8892 6.22504 11.9834 6.5878 11.9834 6.95666C11.9834 7.32553 11.8892 7.68829 11.7098 8.01058C11.5303 8.33287 11.2716 8.60402 10.9581 8.79833Z" fill="#F37A10"/>
</svg>
