<svg width="32" height="32" viewBox="0 0 32 32" fill="none" xmlns="http://www.w3.org/2000/svg">
<path opacity="0.4" d="M22.3603 25.3066H9.64032C9.08032 25.3066 8.57365 24.9466 8.38699 24.4266L2.84032 8.8933C2.40032 7.6533 3.81365 6.59997 4.86699 7.35997L10.2003 11.1733C10.907 11.68 11.9203 11.3733 12.227 10.56L14.7469 3.83997C15.1736 2.67997 16.8136 2.67997 17.2403 3.83997L19.7603 10.56C20.0669 11.3866 21.0669 11.68 21.7869 11.1733L27.1203 7.35997C28.1869 6.59997 29.5869 7.66664 29.1469 8.8933L23.6003 24.4266C23.4269 24.9466 22.9203 25.3066 22.3603 25.3066Z" fill="#77778B"/>
<path d="M22.6663 29.3333H9.33301C8.78634 29.3333 8.33301 28.8799 8.33301 28.3333C8.33301 27.7866 8.78634 27.3333 9.33301 27.3333H22.6663C23.213 27.3333 23.6663 27.7866 23.6663 28.3333C23.6663 28.8799 23.213 29.3333 22.6663 29.3333Z" fill="#77778B"/>
<path d="M19.3337 19.6667H12.667C12.1203 19.6667 11.667 19.2134 11.667 18.6667C11.667 18.1201 12.1203 17.6667 12.667 17.6667H19.3337C19.8803 17.6667 20.3337 18.1201 20.3337 18.6667C20.3337 19.2134 19.8803 19.6667 19.3337 19.6667Z" fill="#77778B"/>
</svg>
