<svg width="16" height="16" viewBox="0 0 16 16" fill="none" xmlns="http://www.w3.org/2000/svg">
<path opacity="0.4" d="M13.8067 4.19326L11.14 1.5266C11.0777 1.46481 11.0038 1.41593 10.9226 1.38275C10.8414 1.34957 10.7544 1.33276 10.6667 1.33326H3.33333C2.97971 1.33326 2.64057 1.47374 2.39052 1.72379C2.14048 1.97384 2 2.31297 2 2.6666V13.3333C2 13.6869 2.14048 14.026 2.39052 14.2761C2.64057 14.5261 2.97971 14.6666 3.33333 14.6666H12.6667C13.0203 14.6666 13.3594 14.5261 13.6095 14.2761C13.8595 14.026 14 13.6869 14 13.3333V4.6666C14.0005 4.57886 13.9837 4.49188 13.9505 4.41066C13.9173 4.32943 13.8685 4.25556 13.8067 4.19326Z" fill="#F1F1F1"/>
<path d="M11.3307 10V14.6667H4.66406V10C4.66406 9.82319 4.7343 9.65362 4.85932 9.5286C4.98435 9.40357 5.15392 9.33333 5.33073 9.33333H10.6641C10.8409 9.33333 11.0104 9.40357 11.1355 9.5286C11.2605 9.65362 11.3307 9.82319 11.3307 10ZM7.33073 4.66667C7.33073 4.48986 7.26049 4.32029 7.13547 4.19526C7.01044 4.07024 6.84087 4 6.66406 4H5.33073C5.15392 4 4.98435 4.07024 4.85932 4.19526C4.7343 4.32029 4.66406 4.48986 4.66406 4.66667C4.66406 4.84348 4.7343 5.01305 4.85932 5.13807C4.98435 5.2631 5.15392 5.33333 5.33073 5.33333H6.66406C6.84087 5.33333 7.01044 5.2631 7.13547 5.13807C7.26049 5.01305 7.33073 4.84348 7.33073 4.66667Z" fill="#F1F1F1"/>
</svg>
