<svg width="24" height="24" viewBox="0 0 24 24" fill="none" xmlns="http://www.w3.org/2000/svg">
<rect width="24" height="24" rx="5.33333" fill="#191B46"/>
<g clip-path="url(#clip0_153_43030)">
<path d="M11.9495 13.4705C11.514 13.4705 11.0816 13.33 10.721 13.0506L4.56768 7.84316C4.2867 7.60589 4.25236 7.18442 4.48963 6.90501C4.7269 6.62403 5.14836 6.58969 5.42778 6.82696L11.5593 12.0156C11.7841 12.1889 12.129 12.1889 12.3772 11.9969L18.5618 6.82384C18.8444 6.58813 19.2643 6.62403 19.5 6.90813C19.7357 7.19067 19.6982 7.61057 19.4157 7.84628L13.2108 13.035C12.8346 13.3269 12.3897 13.4705 11.9495 13.4705Z" fill="#5F6379"/>
<path d="M17.9676 18.6592H6.0199C4.90693 18.6592 4 17.7538 4 16.6393V8.02271C4 6.90973 4.90537 6.00281 6.0199 6.00281H17.9676C19.0806 6.00281 19.9875 6.90817 19.9875 8.02271V16.6409C19.9875 17.7538 19.0806 18.6592 17.9676 18.6592ZM6.0199 7.33588C5.64059 7.33588 5.33307 7.64495 5.33307 8.02271V16.6409C5.33307 17.0202 5.64215 17.3277 6.0199 17.3277H17.9676C18.3469 17.3277 18.6544 17.0186 18.6544 16.6409V8.02271C18.6544 7.64339 18.3454 7.33588 17.9676 7.33588H6.0199Z" fill="#77778B"/>
</g>
<defs>
<clipPath id="clip0_153_43030">
<rect width="16" height="16" fill="white" transform="translate(4 4)"/>
</clipPath>
</defs>
</svg>
