<svg width="24" height="24" viewBox="0 0 24 24" fill="none" xmlns="http://www.w3.org/2000/svg">
<path d="M17.2797 2.16406C16.3998 2.16505 15.5562 2.51502 14.9341 3.1372C14.3119 3.75939 13.962 4.60291 13.9609 5.48281C13.9609 5.84904 14.0218 6.21275 14.1409 6.55906C14.3061 7.03565 14.5765 7.46889 14.9322 7.82656C15.2401 8.13545 15.606 8.38055 16.0088 8.54788C16.4116 8.71516 16.8435 8.80138 17.2797 8.80156C18.1596 8.80055 19.0031 8.4506 19.6253 7.82844C20.2475 7.20624 20.5974 6.36268 20.5984 5.48281C20.5974 4.60291 20.2475 3.75939 19.6253 3.1372C19.0031 2.51502 18.1596 2.16505 17.2797 2.16406Z" fill="#77778B"/>
<path d="M17.2797 15.0042C16.8452 15.0039 16.415 15.0892 16.0135 15.2552C15.612 15.4212 15.2471 15.6646 14.9397 15.9717C14.5808 16.3289 14.3088 16.7638 14.1447 17.2429C14.0221 17.5897 13.96 17.955 13.9609 18.3229C13.962 19.2028 14.3119 20.0463 14.9341 20.6685C15.5562 21.2907 16.3998 21.6407 17.2797 21.6417C18.1596 21.6407 19.0031 21.2907 19.6253 20.6685C20.2475 20.0463 20.5974 19.2028 20.5984 18.3229C20.5974 17.443 20.2475 16.5994 19.6253 15.9773C19.0031 15.3551 18.1596 15.0051 17.2797 15.0042Z" fill="#77778B"/>
<path opacity="0.4" d="M14.9407 15.9717C14.5818 16.329 14.3098 16.7639 14.1457 17.243L9.3457 14.2393C9.70447 13.8812 9.97754 13.4466 10.1445 12.968L14.9407 15.9717Z" fill="#77778B"/>
<path opacity="0.4" d="M14.9316 7.82707L10.1428 10.8196C9.98246 10.3396 9.71141 9.90412 9.35156 9.54832L14.1403 6.55957C14.3055 7.03616 14.5759 7.4694 14.9316 7.82707Z" fill="#77778B"/>
<path d="M10.1431 10.8195C9.9827 10.3395 9.71165 9.90405 9.3518 9.54825C9.04441 9.23861 8.67864 8.99298 8.2757 8.82566C7.87276 8.6583 7.44061 8.5725 7.0043 8.57325C6.12478 8.57332 5.28129 8.92252 4.65901 9.54405C4.03678 10.1656 3.68664 11.0087 3.68555 11.8882C3.68654 12.7681 4.03651 13.6117 4.65868 14.2338C5.28084 14.856 6.1244 15.206 7.0043 15.207C7.43878 15.2073 7.86901 15.122 8.27053 14.956C8.67204 14.79 9.03688 14.5465 9.3443 14.2395C9.70306 13.8814 9.97614 13.4468 10.1431 12.9682C10.2625 12.6207 10.3234 12.2557 10.3231 11.8882C10.3234 11.5244 10.2625 11.1631 10.1431 10.8195Z" fill="#77778B"/>
</svg>
