<svg width="12" height="21" viewBox="0 0 12 21" fill="none" xmlns="http://www.w3.org/2000/svg">
<path opacity="0.4" d="M9.6 0H2.4C1.07452 0 0 1.07452 0 2.4V18C0 19.3255 1.07452 20.4 2.4 20.4H9.6C10.9255 20.4 12 19.3255 12 18V2.4C12 1.07452 10.9255 0 9.6 0Z" fill="#77778B"/>
<path d="M6.00005 19.2C6.66279 19.2 7.20005 18.6628 7.20005 18C7.20005 17.3373 6.66279 16.8 6.00005 16.8C5.33731 16.8 4.80005 17.3373 4.80005 18C4.80005 18.6628 5.33731 19.2 6.00005 19.2Z" fill="#77778B"/>
<path d="M2.3999 1.35671C2.3999 1.27028 2.46998 1.2002 2.55642 1.2002H9.44342C9.52982 1.2002 9.5999 1.27028 9.5999 1.35671C9.5999 1.93301 9.13274 2.4002 8.55638 2.4002H3.44339C2.86709 2.4002 2.3999 1.93301 2.3999 1.35671Z" fill="#77778B"/>
</svg>
