<svg width="16" height="16" viewBox="0 0 16 16" fill="none" xmlns="http://www.w3.org/2000/svg">
<path opacity="0.4" d="M13.4579 7.28953C13.7167 7.60373 13.8461 7.7608 13.8461 8C13.8461 8.2392 13.7167 8.39627 13.4579 8.71047C12.5111 9.85993 10.423 12 7.99919 12C5.57537 12 3.48723 9.85993 2.5405 8.71047C2.28173 8.39627 2.15234 8.2392 2.15234 8C2.15234 7.7608 2.28173 7.60373 2.5405 7.28953C3.48723 6.14009 5.57537 4 7.99919 4C10.423 4 12.5111 6.14009 13.4579 7.28953Z" fill="#CBCBCB"/>
<path d="M8 10C9.10457 10 10 9.10457 10 8C10 6.89543 9.10457 6 8 6C6.89543 6 6 6.89543 6 8C6 9.10457 6.89543 10 8 10Z" fill="#CBCBCB"/>
</svg>
