<svg width="20" height="20" viewBox="0 0 20 20" fill="none" xmlns="http://www.w3.org/2000/svg">
<path opacity="0.4" d="M16.8228 9.11192C17.1463 9.50467 17.3081 9.701 17.3081 10C17.3081 10.299 17.1463 10.4953 16.8228 10.8881C15.6394 12.3249 13.0292 15 9.99948 15C6.9697 15 4.35953 12.3249 3.17612 10.8881C2.85265 10.4953 2.69092 10.299 2.69092 10C2.69092 9.701 2.85265 9.50467 3.17612 9.11192C4.35953 7.67512 6.9697 5 9.99948 5C13.0292 5 15.6394 7.67512 16.8228 9.11192Z" fill="#CBCBCB"/>
<path d="M10 12.5C11.3807 12.5 12.5 11.3807 12.5 10C12.5 8.61929 11.3807 7.5 10 7.5C8.61929 7.5 7.5 8.61929 7.5 10C7.5 11.3807 8.61929 12.5 10 12.5Z" fill="#CBCBCB"/>
</svg>
